<svg id="Layer_1" role="img" aria-label="20 Year Anniversary logo" xmlns="http://www.w3.org/2000/svg" version="1.1" viewbox="37 21 235 98"> <defs> <style>
      .st1 {
        fill: #f16122;
      }

      .st2 {
        fill: #e91d25;
      }

      .st3 {
        fill: #f79e1d;
      }
    </style> </defs> <g> <g> <g> <path class="st1" d="M179.65,103.39v6.26h-3.16v-6.27l-6.11-9.6h3.72l3.99,6.73,3.99-6.73h3.61l-6.03,9.61h-.01Z"></path> <path class="st1" d="M199.41,109.64h-11.86v-15.87h11.77v2.9h-8.6v3.51h8.21v2.9h-8.21v3.65h8.69v2.9h0Z"></path> <path class="st1" d="M217.3,109.64h-3.38l-1.38-3.7h-6.77l-1.38,3.7h-3.3l6.18-15.87h3.85l6.18,15.87h0ZM206.86,103.03h4.59l-2.29-6.13-2.3,6.13Z"></path> <path class="st1" d="M226.05,93.77c.94,0,1.78.11,2.51.33s1.33.53,1.82.95c.49.41.86.92,1.11,1.52s.37,1.28.37,2.03c0,.65-.11,1.25-.33,1.79s-.54,1.02-.96,1.42c-.42.4-.93.73-1.53.98s-1.28.42-2.05.49l4.89,6.36h-3.83l-4.62-6.31h-.93v6.31h-3.16v-15.87s6.71,0,6.71,0ZM222.5,96.69v3.89h3.49c.87,0,1.52-.16,1.96-.48s.66-.82.66-1.49-.22-1.15-.67-1.46-1.1-.46-1.94-.46h-3.5Z"></path> <path class="st1" d="M245.45,97.78c-.63-.39-1.32-.71-2.07-.96-.75-.26-1.56-.39-2.43-.39-.45,0-.85.04-1.22.13s-.69.21-.96.37-.48.36-.63.6c-.15.23-.23.5-.23.8s.08.54.24.74.39.36.68.5.64.25,1.04.35c.4.09.84.18,1.32.26l.9.15c.71.11,1.37.28,1.99.5s1.15.51,1.6.86c.45.36.81.79,1.07,1.29.26.51.39,1.1.39,1.79,0,.88-.18,1.64-.53,2.28-.36.65-.83,1.18-1.43,1.61-.6.43-1.29.75-2.07.96s-1.6.32-2.45.32c-.6,0-1.21-.04-1.82-.13s-1.21-.22-1.79-.39c-.58-.17-1.13-.39-1.66-.65s-1-.56-1.42-.9l1.64-2.55c.29.23.62.44.99.65.37.21.77.39,1.21.55.43.16.89.28,1.37.37.48.09.98.14,1.49.14.44,0,.85-.04,1.23-.12.38-.08.71-.21.99-.37.28-.17.5-.37.66-.6.16-.23.24-.51.24-.82,0-.27-.07-.51-.22-.7-.14-.2-.36-.36-.64-.5s-.63-.26-1.05-.36-.91-.2-1.46-.29l-1.01-.16c-.7-.11-1.35-.28-1.94-.49-.59-.22-1.1-.5-1.53-.87-.43-.36-.77-.8-1.01-1.33-.24-.52-.36-1.14-.36-1.86,0-.82.17-1.55.52-2.18.34-.63.8-1.16,1.38-1.58s1.25-.74,2.01-.95c.76-.22,1.57-.32,2.41-.32.55,0,1.09.03,1.6.1s1.02.16,1.51.3c.49.14.98.31,1.47.53s.98.47,1.48.77l-1.5,2.58v-.03h0Z"></path> </g> <polygon class="st1" points="208.41 80.29 208.41 76.73 191.78 76.73 186.83 80.29 208.41 80.29"></polygon> <g> <path class="st1" d="M186.57,40.2c5.02-.09,8.51,3.07,8.51,6.98,0,9.04-17.29,22.68-24.77,28.68v4.43c9.21-6.95,28.59-22.25,28.59-32.59,0-6.95-4.84-11.23-11.8-11.23-7.67,0-12.1,4.07-13.94,6.26l2.73,2.45c4.28-4.56,8.38-4.95,10.67-4.99h.01Z"></path> <path class="st1" d="M176.57,83.85c.52-.43,1.13-.87,1.74-1.3,10.51-7.99,27.81-20.94,27.81-35.02,0-10.34-6.73-17.14-17.66-17.74-4.76-.26-13.55.26-20.42,8.32l2.83,2.55c6.03-6.97,13.18-7.46,17.35-7.21,8.59.52,14.25,6.17,14.25,14.08,0,12.95-20.07,27.98-32.15,36.32v3.56h38.09v-3.56s-31.84,0-31.84,0Z"></path> </g> <path class="st1" d="M228.75,88.15c-.08,0,.08,0,0,0-9.8-.16-16.19-4.76-20.1-13.94-2.87-6.73-2.79-13.65-2.79-13.93h.49c0,.06.08,6.92,3.92,13.95s11.95,10.26,18.42,10.05c5.66-.21,10.6-2.92,13.81-8.05,2.76-4.42,4.22-10.44,4.22-17.41,0-4.46-.61-10.97-3.53-16.6-2.88-5.56-8.07-9.01-13.88-9.21-2.37,0-6.87.6-10.71,4.48-4,4.04-6.06,10.59-5.97,18.94.22,19.9,12.85,21.01,15.64,21.01h.09c6.92-.06,11.23-7.2,11.23-18.62,0-12.87-5.14-18.61-10.22-18.97-13.12-.93-12.67,19.34-12.67,19.46h-.68c0-.58-1.05-14.04,5.36-20.22,2.25-2.17,4.98-3.21,8.12-3.11,4.54.15,8.26,2.78,10.76,7.6,2.06,3.98,3.2,9.39,3.2,15.23,0,13.57-5.91,22.4-15.06,22.48h-.17c-8.9,0-19.27-6.49-19.47-24.84-.1-9.4,2.35-16.91,7.09-21.7,3.59-3.63,8.38-5.62,13.49-5.62h.06c7.24.24,13.67,4.47,17.22,11.3,3.28,6.32,3.97,13.48,3.97,18.38,0,7.69-1.66,14.42-4.81,19.46-3.94,6.3-9.99,9.81-17.03,9.87h0Z"></path> </g> <rect fill="currentColor" x="146.61" y="29.12" width=".73" height="82.25"></rect> <g> <path fill="currentColor" d="M52.47,95.04v-4.39c0-1.65-1.05-2.76-2.75-2.78-.89-.01-1.81.26-2.46,1.24-.48-.78-1.24-1.24-2.31-1.24-.75,0-1.48.22-2.05,1.04v-.86h-1.52v6.99h1.54v-3.88c0-1.21.67-1.86,1.71-1.86s1.52.66,1.52,1.84v3.89h1.54v-3.88c0-1.21.7-1.86,1.71-1.86s1.54.66,1.54,1.84v3.89h1.54v.02h-.01ZM75.2,88.05h-2.49v-2.12h-1.54v2.12h-1.42v1.39h1.42v3.19c0,1.62.63,2.59,2.43,2.59.66,0,1.42-.2,1.9-.54l-.44-1.3c-.45.26-.95.4-1.35.4-.76,0-1.01-.47-1.01-1.17v-3.16h2.49v-1.39h.01ZM88.18,87.87c-.88,0-1.45.41-1.84,1.02v-.85h-1.51v6.99h1.52v-3.92c0-1.16.5-1.8,1.49-1.8.31,0,.63.04.95.18l.47-1.43c-.34-.13-.78-.19-1.08-.19h0ZM68.56,88.6c-.73-.48-1.74-.73-2.85-.73-1.77,0-2.91.85-2.91,2.24,0,1.14.85,1.84,2.41,2.06l.72.1c.83.12,1.23.34,1.23.73,0,.54-.56.85-1.59.85s-1.81-.34-2.33-.73l-.72,1.18c.83.61,1.89.91,3.03.91,2.02,0,3.19-.95,3.19-2.28,0-1.23-.92-1.87-2.44-2.09l-.72-.1c-.66-.09-1.18-.22-1.18-.69,0-.51.5-.82,1.33-.82.89,0,1.76.34,2.18.6l.66-1.23s-.01,0-.01,0ZM109.32,87.87c-.88,0-1.45.41-1.84,1.02v-.85h-1.51v6.99h1.52v-3.92c0-1.16.5-1.8,1.49-1.8.31,0,.63.04.95.18l.47-1.43c-.34-.13-.78-.19-1.08-.19h0ZM47.9,104.11h-2.39v5.61h-1.53v-5.61h-1.4v-1.39h1.4v-1.18c0-1.4.71-2.52,2.34-2.52.82,0,1.43.22,1.95.53l-.54,1.28c-.36-.2-.85-.37-1.31-.37-.59,0-.91.39-.91,1.08v1.18h2.39v1.39ZM55.96,106.23c0-2.1-1.61-3.68-3.77-3.68s-3.76,1.58-3.76,3.68,1.6,3.68,3.76,3.68,3.77-1.58,3.77-3.68M50,106.23c0-1.32.94-2.24,2.19-2.24s2.2.92,2.2,2.24-.95,2.24-2.2,2.24-2.19-.92-2.19-2.24M63.68,102.72h-1.53v3.89c0,1.35-.75,1.85-1.71,1.85s-1.71-.5-1.71-1.85v-3.89h-1.53v4.03c0,2.23,1.6,3.15,3.24,3.15s3.24-.92,3.24-3.15c0,0,0-4.03,0-4.03ZM72.06,105.32c0-1.64-1.17-2.78-2.84-2.78-.72,0-1.58.21-2.15,1.04v-.85h-1.52v6.99h1.53v-3.88c0-1.2.83-1.85,1.81-1.85s1.63.66,1.63,1.83v3.89h1.53v-4.39M89.28,102.72h-1.53v.85c-.48-.62-1.2-1.03-2.2-1.03-1.96,0-3.5,1.54-3.5,3.68s1.54,3.68,3.5,3.68c.99,0,1.72-.4,2.2-1.02v.84h1.53v-6.99h0ZM83.63,106.22c0-1.23.8-2.24,2.11-2.24s2.11.96,2.11,2.24-.85,2.24-2.11,2.24-2.11-1.01-2.11-2.24M108.31,106.23c0-2.1-1.61-3.68-3.77-3.68s-3.76,1.58-3.76,3.68,1.6,3.68,3.76,3.68,3.77-1.58,3.77-3.68M102.36,106.23c0-1.32.94-2.24,2.19-2.24s2.2.92,2.2,2.24-.95,2.24-2.2,2.24-2.19-.92-2.19-2.24M116.23,105.32c0-1.64-1.17-2.78-2.84-2.78-.72,0-1.58.21-2.15,1.04v-.85h-1.52v6.99h1.53v-3.88c0-1.2.83-1.85,1.81-1.85s1.63.66,1.63,1.83v3.89h1.53v-4.39M95.95,102.71h-2.47v-2.1h-1.52v2.1h-1.41v1.38h1.41v3.16c0,1.61.62,2.57,2.41,2.57.65,0,1.41-.2,1.89-.54l-.44-1.29c-.45.26-.94.39-1.34.39-.75,0-1-.46-1-1.16v-3.13h2.47s0-1.38,0-1.38ZM80.64,99.91v9.81h-1.52v-.85c-.48.63-1.22,1.02-2.21,1.02-1.96,0-3.5-1.54-3.5-3.68s1.54-3.68,3.5-3.68c1,0,1.73.4,2.21,1.02v-3.66h1.52v.02h0ZM77.09,108.46c1.26,0,2.11-.97,2.11-2.24s-.85-2.24-2.11-2.24-2.12,1.01-2.12,2.24.81,2.24,2.12,2.24M99.38,102.71h-1.54v7h1.54v-7ZM98.6,99.34c-.62,0-1.07.47-1.07,1.08s.45,1.07,1.07,1.07,1.08-.47,1.08-1.07-.48-1.08-1.08-1.08M89.71,91.54c0,2.12,1.48,3.67,3.73,3.67,1.05,0,1.76-.23,2.52-.83l-.73-1.23c-.57.41-1.17.63-1.83.63-1.21-.01-2.11-.89-2.11-2.24s.89-2.22,2.11-2.24c.66,0,1.26.22,1.83.63l.73-1.23c-.76-.6-1.46-.83-2.52-.83-2.25,0-3.73,1.55-3.73,3.67h0ZM103.96,91.54v-3.5h-1.52v.85c-.48-.63-1.21-1.02-2.21-1.02-1.96,0-3.5,1.54-3.5,3.67s1.54,3.67,3.5,3.67c.99,0,1.73-.4,2.21-1.02v.85h1.52v-3.5ZM98.3,91.54c0-1.23.8-2.24,2.12-2.24s2.11.97,2.11,2.24-.85,2.24-2.11,2.24-2.12-1.01-2.12-2.24h0ZM79.94,87.87c-2.05,0-3.48,1.49-3.48,3.67s1.49,3.67,3.58,3.67c1.05,0,2.02-.26,2.87-.98l-.75-1.13c-.59.47-1.33.73-2.03.73-.98,0-1.87-.45-2.09-1.71h5.19c.01-.19.03-.38.03-.59-.01-2.18-1.36-3.67-3.32-3.67h0ZM79.91,89.23c.98,0,1.61.61,1.77,1.7h-3.63c.16-1.01.78-1.7,1.86-1.7h0ZM118.08,91.54v-6.3h-1.52v3.66c-.48-.63-1.21-1.02-2.21-1.02-1.96,0-3.5,1.54-3.5,3.67s1.54,3.67,3.5,3.67c.99,0,1.73-.4,2.21-1.02v.85h1.52v-3.5h0ZM112.42,91.54c0-1.23.8-2.24,2.12-2.24s2.11.97,2.11,2.24-.85,2.24-2.11,2.24-2.12-1.01-2.12-2.24h0ZM61.04,91.54v-3.5h-1.52v.85c-.48-.63-1.21-1.02-2.21-1.02-1.96,0-3.5,1.54-3.5,3.67s1.54,3.67,3.5,3.67c.99,0,1.73-.4,2.21-1.02v.85h1.52v-3.5ZM55.38,91.54c0-1.23.8-2.24,2.12-2.24s2.11.97,2.11,2.24-.85,2.24-2.11,2.24-2.12-1.01-2.12-2.24Z"></path> <g> <rect class="st1" x="68.05" y="34.75" width="23.04" height="41.41"></rect> <path class="st2" d="M69.52,55.46c0-8.4,3.93-15.88,10.06-20.71-4.48-3.53-10.13-5.63-16.28-5.63-14.54,0-26.33,11.79-26.33,26.34s11.79,26.34,26.33,26.34c6.14,0,11.8-2.1,16.28-5.63-6.13-4.82-10.06-12.3-10.06-20.71Z"></path> <path class="st3" d="M119.67,71.78v-.85h.34v-.17h-.87v.17h.34v.85h.19ZM121.36,71.78v-1.02h-.27l-.31.7-.31-.7h-.27v1.02h.19v-.77l.29.66h.2l.29-.67v.77h.19,0Z"></path> <path class="st3" d="M122.19,55.46c0,14.55-11.79,26.34-26.33,26.34-6.14,0-11.8-2.1-16.28-5.63,6.13-4.82,10.06-12.3,10.06-20.71s-3.93-15.88-10.06-20.71c4.48-3.53,10.13-5.63,16.28-5.63,14.54,0,26.33,11.79,26.33,26.34Z"></path> </g> </g> </g> </svg>